<svg width="128" height="128" viewBox="0 0 128 128" fill="none" xmlns="http://www.w3.org/2000/svg">
<path d="M58.667 85.3333H69.3337V63.2L77.867 71.6L85.467 64L64.0003 42.6667L42.667 64L50.267 71.4667L58.667 63.0667V85.3333ZM21.3337 106.667C18.4003 106.667 15.8901 105.623 13.803 103.536C11.7159 101.449 10.6705 98.9369 10.667 96V32C10.667 29.0667 11.7123 26.5564 13.803 24.4693C15.8937 22.3822 18.4039 21.3369 21.3337 21.3333H106.667C109.6 21.3333 112.112 22.3787 114.203 24.4693C116.294 26.56 117.337 29.0702 117.334 32V96C117.334 98.9333 116.29 101.445 114.203 103.536C112.116 105.627 109.604 106.67 106.667 106.667H21.3337ZM21.3337 96H106.667V32H21.3337V96Z" fill="#6A040F"/>
</svg>
